Coordinates
version=1
nRows=13
nColumns=63
inDegrees=yes

Units are S.I. units (second, meters, Newtons, ...)
If the header above contains a line with 'inDegrees', this indicates whether rotational values are in degrees (yes) or radians (no).

endheader
time	pelvis_tilt	pelvis_list	pelvis_rotation	pelvis_tx	pelvis_ty	pelvis_tz	hip_flexion_r	hip_adduction_r	hip_rotation_r	knee_angle_r	knee_angle_r_beta	ankle_angle_r	subtalar_angle_r	mtp_angle_r	hip_flexion_l	hip_adduction_l	hip_rotation_l	knee_angle_l	knee_angle_l_beta	ankle_angle_l	subtalar_angle_l	mtp_angle_l	L5_S1_Flex_Ext	L5_S1_Lat_Bending	L5_S1_axial_rotation	L4_L5_Flex_Ext	L4_L5_Lat_Bending	L4_L5_axial_rotation	L3_L4_Flex_Ext	L3_L4_Lat_Bending	L3_L4_axial_rotation	L2_L3_Flex_Ext	L2_L3_Lat_Bending	L2_L3_axial_rotation	L1_L2_Flex_Ext	L1_L2_Lat_Bending	L1_L2_axial_rotation	L1_T12_Flex_Ext	L1_T12_Lat_Bending	L1_T12_axial_rotation	Abs_r3	Abs_r2	Abs_r1	Abs_t1	Abs_t2	neck_flexion	neck_bending	neck_rotation	arm_flex_r	arm_add_r	arm_rot_r	elbow_flex_r	pro_sup_r	wrist_flex_r	wrist_dev_r	arm_flex_l	arm_add_l	arm_rot_l	elbow_flex_l	pro_sup_l	wrist_flex_l	wrist_dev_l
2.949153	1.618980	-3.773597	77.064669	0.155625	1.011410	0.474972	-2.256166	-0.036806	-3.550933	6.954605	0.121381	35.566708	17.763560	0.000000	-6.161897	1.973825	-12.803489	3.019900	0.052707	33.114479	-4.536565	0.000000	0.170928	0.017496	-1.142523	0.317430	0.023269	-1.213930	0.280817	0.042539	-1.213930	0.195353	0.042539	-0.999707	0.158724	0.035677	-0.928300	0.097668	0.027101	-0.856892	1.220921	0.197914	-6.354368	0.000000	0.000000	7.187954	11.958683	-22.100089	159.218196	-47.091113	118.346283	36.011834	60.069307	-3.299417	4.918665	156.257058	-26.916751	100.795715	62.312442	84.767744	-12.833653	11.857925
2.966102	1.675747	-3.729249	77.136457	0.155590	1.011808	0.474409	-2.308731	0.009020	-3.586865	7.068714	0.123372	35.525565	17.785828	0.000000	-6.266248	1.933700	-12.714919	2.969464	0.051827	32.989559	-4.652024	0.000000	0.180512	0.006958	-1.106722	0.335228	0.009254	-1.175893	0.296562	0.016917	-1.175893	0.206307	0.016917	-0.968382	0.167623	0.014188	-0.899212	0.103144	0.010778	-0.830042	1.289376	0.078708	-6.155258	0.000000	0.000000	5.978355	11.785843	-22.399950	158.645338	-46.497387	118.579500	34.746090	63.296254	-4.147171	7.433246	156.892205	-25.280620	102.468391	60.304632	83.126949	-11.838307	11.149178
2.983051	1.657998	-3.757962	77.225578	0.155709	1.012077	0.473620	-2.292197	-0.000461	-3.662592	7.194274	0.125564	35.472547	17.789570	0.000000	-6.292123	1.941655	-12.725686	2.919764	0.050960	32.863177	-4.596371	0.000000	0.193686	-0.013488	-1.019387	0.359694	-0.017940	-1.083099	0.318207	-0.032796	-1.083099	0.221364	-0.032796	-0.891964	0.179857	-0.027506	-0.828252	0.110672	-0.020894	-0.764540	1.383480	-0.152584	-5.669526	0.000000	0.000000	5.327552	11.704224	-23.335291	159.077932	-46.221170	119.651314	34.475747	63.994710	-5.710579	9.102598	157.494487	-23.677636	103.769849	58.592290	81.429461	-11.085276	10.304609
3.000000	1.566065	-3.840797	77.331490	0.155967	1.012221	0.472592	-2.237885	-0.069342	-3.780050	7.301435	0.127434	35.413579	17.786772	0.000000	-6.261506	2.003938	-12.798653	2.864170	0.049989	32.742808	-4.402358	0.000000	0.207907	-0.043506	-0.886962	0.386105	-0.057863	-0.942398	0.341571	-0.105781	-0.942398	0.237617	-0.105781	-0.776092	0.193063	-0.088718	-0.720657	0.118798	-0.067391	-0.665222	1.485062	-0.492152	-4.933019	0.000000	0.000000	5.265396	11.761229	-24.757370	160.508710	-46.279059	121.472010	35.142256	62.955763	-7.665220	10.047163	158.042050	-22.211099	104.614509	57.325977	79.778777	-10.620882	9.342150
3.016949	1.416514	-3.954400	77.425542	0.156362	1.012258	0.471359	-2.164387	-0.189042	-3.905150	7.391864	0.129012	35.362917	17.769250	0.000000	-6.211525	2.125362	-12.680163	2.769335	0.048334	32.573808	-4.430129	0.000000	0.219481	-0.081118	-0.716608	0.407599	-0.107887	-0.761396	0.360586	-0.197231	-0.761396	0.250845	-0.197231	-0.627032	0.203811	-0.165417	-0.582244	0.125412	-0.125652	-0.537456	1.567734	-0.917627	-3.985557	0.000000	0.000000	5.809260	11.996254	-26.563251	162.779300	-46.708638	123.700956	36.673562	60.849499	-9.564015	10.656595	158.558304	-20.973400	104.991924	56.627030	78.262754	-10.426316	8.283010
3.033898	1.220744	-4.077634	77.539918	0.156811	1.012197	0.469893	-2.114169	-0.349422	-4.048470	7.429459	0.129669	35.322410	17.724316	0.000000	-6.163292	2.289749	-12.462234	2.646258	0.046186	32.404297	-4.505105	0.000000	0.227429	-0.124000	-0.527641	0.422358	-0.164920	-0.560618	0.373642	-0.301494	-0.560618	0.259928	-0.301494	-0.461686	0.211190	-0.252861	-0.428708	0.129953	-0.192076	-0.395731	1.624500	-1.402714	-2.934580	0.000000	0.000000	6.890280	12.449357	-28.498322	165.791473	-47.411846	126.414490	38.992152	57.539321	-11.502758	10.648128	159.059706	-20.058449	104.925859	56.590228	76.966925	-10.462637	7.230990
3.050847	1.006533	-4.200753	77.644299	0.157311	1.012060	0.468179	-2.099215	-0.529639	-4.155048	7.408007	0.129294	35.300158	17.643700	0.000000	-6.141851	2.482612	-12.038352	2.480309	0.043290	32.204475	-4.817138	0.000000	0.233761	-0.168367	-0.324829	0.434117	-0.223928	-0.345131	0.384046	-0.409366	-0.345131	0.267165	-0.409366	-0.284226	0.217070	-0.343333	-0.263924	0.133571	-0.260800	-0.243622	1.669730	-1.904596	-1.806603	0.000000	0.000000	8.266935	13.047523	-30.496522	169.342507	-48.407152	129.276721	41.984363	53.517574	-13.166748	10.161511	159.506530	-19.521438	104.382592	57.252927	76.048741	-10.612270	6.342657
3.067797	0.798695	-4.311342	77.762813	0.157817	1.011876	0.466193	-2.150169	-0.703587	-4.230048	7.302788	0.127458	35.288053	17.526195	0.000000	-6.165740	2.679590	-11.365741	2.274821	0.039703	31.966801	-5.411858	0.000000	0.239804	-0.210653	-0.123844	0.445340	-0.280168	-0.131585	0.393974	-0.512181	-0.131585	0.274072	-0.512181	-0.108364	0.222682	-0.429563	-0.100624	0.137024	-0.326301	-0.092883	1.712897	-2.382945	-0.688785	0.000000	0.000000	9.743400	13.747379	-32.389975	173.222056	-49.684297	131.994397	45.531579	49.484045	-14.732364	9.257116	159.864051	-19.417569	103.375209	58.613817	75.593463	-10.842083	5.674772
3.084746	0.576199	-4.404847	77.932620	0.158312	1.011639	0.463935	-2.277617	-0.886631	-4.281075	7.106945	0.124040	35.287725	17.343319	0.000000	-6.235333	2.891756	-10.547991	2.039784	0.035601	31.723364	-6.101912	0.000000	0.247112	-0.253563	0.057828	0.458912	-0.337239	0.061442	0.405981	-0.616514	0.061442	0.282424	-0.616514	0.050599	0.229468	-0.517066	0.046985	0.141200	-0.392769	0.043371	1.765098	-2.868358	0.321621	0.000000	0.000000	11.207689	14.508211	-34.151436	177.519686	-51.152904	135.077198	49.504408	45.278304	-16.217224	7.755353	160.188238	-19.757339	102.026958	60.637699	75.623179	-11.141553	5.224089
3.101695	0.381478	-4.458731	78.127077	0.158769	1.011392	0.461484	-2.491756	-1.047943	-4.321633	6.858168	0.119698	35.296480	17.143068	0.000000	-6.367786	3.083336	-9.601311	1.805797	0.031517	31.486496	-6.929893	0.000000	0.252864	-0.290040	0.225538	0.469594	-0.385753	0.239634	0.415430	-0.705203	0.239634	0.288998	-0.705203	0.197346	0.234809	-0.591449	0.183249	0.144486	-0.449272	0.169153	1.806182	-3.280990	1.254373	0.000000	0.000000	12.559624	15.304993	-35.537988	182.099887	-52.775171	138.410901	53.861988	41.827647	-18.069373	6.082225	160.252537	-20.586592	100.100738	63.269873	76.124392	-11.463360	4.981207
3.118644	0.164296	-4.461723	78.360646	0.159269	1.011162	0.458966	-2.787084	-1.232751	-4.381146	6.567035	0.114616	35.314936	16.933911	0.000000	-6.549977	3.291766	-8.665382	1.589066	0.027734	31.271703	-7.695668	0.000000	0.257594	-0.328220	0.361445	0.478378	-0.436533	0.384035	0.423202	-0.798034	0.384035	0.294405	-0.798034	0.316264	0.239202	-0.669306	0.293674	0.147189	-0.508413	0.271084	1.839971	-3.712890	2.010247	0.000000	0.000000	13.681472	16.146771	-36.554144	186.445645	-54.782650	140.336106	58.600656	41.034934	-19.230943	5.394874	160.113533	-21.877481	97.827287	66.474763	77.093361	-11.948308	4.912299
3.135593	-0.044381	-4.414060	78.635014	0.159703	1.010917	0.456396	-3.164276	-1.415338	-4.482490	6.253570	0.109145	35.339604	16.732650	0.000000	-6.788337	3.491440	-7.701885	1.387608	0.024218	31.077676	-8.457019	0.000000	0.261538	-0.359883	0.462266	0.485702	-0.478644	0.491158	0.429681	-0.875019	0.491158	0.298912	-0.875019	0.404483	0.242864	-0.733873	0.375591	0.149443	-0.557458	0.346700	1.868140	-4.071066	2.570986	0.000000	0.000000	14.477106	16.902944	-36.908774	190.692691	-56.937241	141.997898	63.612254	41.843962	-20.024837	5.173818	159.624598	-23.705578	95.118386	70.252274	78.510324	-12.565451	5.064383
3.152542	-0.230352	-4.316724	78.949316	0.160037	1.010655	0.453853	-3.612170	-1.583353	-4.641507	5.938917	0.103654	35.367805	16.549063	0.000000	-7.074148	3.665863	-6.789458	1.209577	0.021111	30.926776	-9.111291	0.000000	0.264256	-0.381235	0.517852	0.490750	-0.507042	0.550218	0.434147	-0.926934	0.550218	0.302019	-0.926934	0.453121	0.245388	-0.777414	0.420755	0.150996	-0.590533	0.388389	1.887557	-4.312605	2.880139	0.000000	0.000000	14.883580	17.494248	-36.439136	194.658883	-59.176998	143.304893	68.845050	44.237859	-20.448879	5.551240	158.689568	-26.131512	91.984015	74.595058	80.272870	-13.287444	5.391902
